<svg width="26" height="26" viewBox="0 0 26 26" fill="none" xmlns="http://www.w3.org/2000/svg">
<rect x="0.164307" y="0.743225" width="25" height="25" rx="8" fill="#DA6969"/>
<path d="M6.39966 5.70755H7.56372L8.7981 12.3794H7.77466L7.59106 11.1841H6.37231L6.19653 12.3794H5.16919L6.39966 5.70755ZM7.47388 10.4224L7.00513 7.09818H6.96216L6.4895 10.4224H7.47388ZM9.4231 5.70755H10.4426V10.5982C10.4426 10.8065 10.453 10.9797 10.4739 11.1177C10.4947 11.2557 10.5273 11.3664 10.5715 11.4497C10.6184 11.5305 10.677 11.5891 10.7473 11.6255C10.8202 11.6594 10.9062 11.6763 11.0051 11.6763C11.1041 11.6763 11.19 11.6594 11.2629 11.6255C11.3385 11.5891 11.3997 11.5305 11.4465 11.4497C11.496 11.3664 11.5325 11.2557 11.5559 11.1177C11.5819 10.9797 11.595 10.8065 11.595 10.5982V5.70755H12.6028V10.3286C12.6028 10.6542 12.5767 10.9328 12.5247 11.1646C12.4726 11.3964 12.4036 11.5904 12.3176 11.7466C12.2317 11.9029 12.1327 12.0266 12.0208 12.1177C11.9114 12.2089 11.7968 12.2792 11.677 12.3286C11.5598 12.3755 11.4426 12.4055 11.3254 12.4185C11.2083 12.4315 11.1015 12.438 11.0051 12.438C10.9088 12.438 10.802 12.4315 10.6848 12.4185C10.5702 12.4055 10.4543 12.3755 10.3372 12.3286C10.22 12.2792 10.1067 12.2089 9.99731 12.1177C9.88794 12.0266 9.79028 11.9029 9.70435 11.7466C9.61841 11.5904 9.5494 11.3977 9.49731 11.1685C9.44784 10.9367 9.4231 10.6568 9.4231 10.3286V5.70755ZM14.3372 6.50443H13.2629V5.70755H16.4192V6.50443H15.3489V12.3794H14.3372V6.50443ZM18.5793 12.438C18.4726 12.438 18.3567 12.4289 18.2317 12.4107C18.1067 12.3951 17.983 12.3599 17.8606 12.3052C17.7382 12.2505 17.6197 12.1737 17.5051 12.0747C17.3931 11.9732 17.2929 11.8404 17.2043 11.6763C17.1184 11.5122 17.0494 11.3104 16.9973 11.0708C16.9452 10.8286 16.9192 10.5409 16.9192 10.2076V7.84427C16.9192 7.50833 16.9452 7.22187 16.9973 6.98489C17.052 6.74531 17.1236 6.54479 17.2122 6.38333C17.3007 6.21927 17.401 6.08906 17.5129 5.99271C17.6275 5.89635 17.746 5.82344 17.8684 5.77396C17.9934 5.72187 18.1171 5.68802 18.2395 5.67239C18.3619 5.65677 18.4752 5.64896 18.5793 5.64896C18.6783 5.64896 18.7877 5.65677 18.9075 5.67239C19.0299 5.68541 19.151 5.71666 19.2708 5.76614C19.3931 5.81302 19.5116 5.88463 19.6262 5.98099C19.7408 6.07474 19.8424 6.20364 19.9309 6.36771C20.0194 6.52916 20.0898 6.73099 20.1418 6.97318C20.1965 7.21276 20.2239 7.50312 20.2239 7.84427V10.2076C20.2239 10.5383 20.1965 10.8234 20.1418 11.063C20.0872 11.3 20.0155 11.5018 19.927 11.6685C19.8385 11.8326 19.7356 11.9654 19.6184 12.0669C19.5038 12.1659 19.3853 12.244 19.2629 12.3013C19.1431 12.356 19.0234 12.3924 18.9036 12.4107C18.7838 12.4289 18.6757 12.438 18.5793 12.438ZM18.5793 11.6763C18.6783 11.6763 18.7642 11.6594 18.8372 11.6255C18.9127 11.5917 18.9739 11.5331 19.0208 11.4497C19.0702 11.3664 19.1067 11.257 19.1301 11.1216C19.1562 10.9836 19.1692 10.8104 19.1692 10.6021V7.56693C19.1692 7.35338 19.1562 7.175 19.1301 7.03177C19.1067 6.88854 19.0702 6.77396 19.0208 6.68802C18.9739 6.59948 18.9127 6.53698 18.8372 6.50052C18.7642 6.46406 18.6783 6.44583 18.5793 6.44583C18.4778 6.44583 18.3892 6.46406 18.3137 6.50052C18.2382 6.53698 18.1757 6.59948 18.1262 6.68802C18.0767 6.77396 18.039 6.88854 18.0129 7.03177C17.9895 7.175 17.9778 7.35338 17.9778 7.56693V10.6021C17.9778 10.8104 17.9895 10.9836 18.0129 11.1216C18.039 11.257 18.0767 11.3664 18.1262 11.4497C18.1757 11.5331 18.2382 11.5917 18.3137 11.6255C18.3892 11.6594 18.4778 11.6763 18.5793 11.6763Z" fill="white"/>
<path d="M5.21712 13.4352H6.53743L7.17806 16.0172C7.24577 16.3036 7.29915 16.5771 7.33821 16.8375C7.37728 17.0953 7.41504 17.3388 7.45149 17.568H7.48274C7.5192 17.3388 7.55696 17.0953 7.59603 16.8375C7.63509 16.5771 7.68847 16.3036 7.75618 16.0172L8.41634 13.4352H9.70931V20.107H8.76399V17.9C8.76399 17.5615 8.7666 17.2359 8.77181 16.9234C8.77962 16.6109 8.78873 16.3245 8.79915 16.0641C8.80957 15.801 8.82129 15.5693 8.83431 15.3687C8.84733 15.1682 8.85905 15.0094 8.86946 14.8922H8.79524L7.78743 19.2477H7.14681L6.13118 14.8922H6.05696C6.06738 15.0094 6.0791 15.1682 6.09212 15.3687C6.10514 15.5693 6.11686 15.801 6.12728 16.0641C6.13769 16.3245 6.1455 16.6109 6.15071 16.9234C6.15853 17.2359 6.16243 17.5615 6.16243 17.9V20.107H5.21712V13.4352ZM11.3043 13.4352H12.4684L13.7027 20.107H12.6793L12.4957 18.9117H11.277L11.1012 20.107H10.0738L11.3043 13.4352ZM12.3785 18.15L11.9098 14.8258H11.8668L11.3942 18.15H12.3785ZM14.6884 14.232H13.6142V13.4352H16.7704V14.232H15.7001V20.107H14.6884V14.232ZM18.6506 20.1656C18.5438 20.1656 18.4279 20.1565 18.3029 20.1383C18.1779 20.1227 18.0542 20.0875 17.9318 20.0328C17.8094 19.9781 17.6909 19.9013 17.5763 19.8023C17.4644 19.7008 17.3641 19.568 17.2756 19.4039C17.1896 19.2398 17.1206 19.038 17.0685 18.7984C17.0164 18.5562 16.9904 18.2685 16.9904 17.9352V15.5719C16.9904 15.2359 17.0164 14.9495 17.0685 14.7125C17.1232 14.4729 17.1948 14.2724 17.2834 14.1109C17.3719 13.9469 17.4722 13.8167 17.5842 13.7203C17.6987 13.624 17.8172 13.551 17.9396 13.5016C18.0646 13.4495 18.1883 13.4156 18.3107 13.4C18.4331 13.3844 18.5464 13.3766 18.6506 13.3766C18.7495 13.3766 18.8589 13.3844 18.9787 13.4C19.1011 13.413 19.2222 13.4443 19.342 13.4937C19.4644 13.5406 19.5828 13.6122 19.6974 13.7086C19.812 13.8023 19.9136 13.9312 20.0021 14.0953C20.0907 14.2568 20.161 14.4586 20.2131 14.7008C20.2677 14.9404 20.2951 15.2307 20.2951 15.5719V17.9352C20.2951 18.2659 20.2677 18.551 20.2131 18.7906C20.1584 19.0276 20.0868 19.2294 19.9982 19.3961C19.9097 19.5602 19.8068 19.693 19.6896 19.7945C19.575 19.8935 19.4565 19.9716 19.3342 20.0289C19.2144 20.0836 19.0946 20.12 18.9748 20.1383C18.855 20.1565 18.7469 20.1656 18.6506 20.1656ZM18.6506 19.4039C18.7495 19.4039 18.8355 19.387 18.9084 19.3531C18.9839 19.3193 19.0451 19.2607 19.092 19.1773C19.1414 19.094 19.1779 18.9846 19.2013 18.8492C19.2274 18.7112 19.2404 18.538 19.2404 18.3297V15.2945C19.2404 15.081 19.2274 14.9026 19.2013 14.7594C19.1779 14.6161 19.1414 14.5016 19.092 14.4156C19.0451 14.3271 18.9839 14.2646 18.9084 14.2281C18.8355 14.1917 18.7495 14.1734 18.6506 14.1734C18.549 14.1734 18.4605 14.1917 18.3849 14.2281C18.3094 14.2646 18.2469 14.3271 18.1974 14.4156C18.148 14.5016 18.1102 14.6161 18.0842 14.7594C18.0607 14.9026 18.049 15.081 18.049 15.2945V18.3297C18.049 18.538 18.0607 18.7112 18.0842 18.8492C18.1102 18.9846 18.148 19.094 18.1974 19.1773C18.2469 19.2607 18.3094 19.3193 18.3849 19.3531C18.4605 19.387 18.549 19.4039 18.6506 19.4039Z" fill="white"/>
</svg>
