<svg width="20" height="20" viewBox="0 0 20 20" fill="none" xmlns="http://www.w3.org/2000/svg">
<rect x="0.839661" y="0.318298" width="19.0112" height="19.0112" fill="#DA6969"/>
<path d="M5.80532 9.63022L5.49532 7.81022H4.08532L3.78532 9.63022H2.98532L4.26532 2.63022H5.32532L6.60532 9.63022H5.80532ZM4.79532 3.64022L4.19532 7.17022H5.38532L4.79532 3.64022ZM9.63086 2.63022H10.4209V7.54022C10.4209 8.38689 10.2842 8.97355 10.0109 9.30022C9.7442 9.62022 9.3642 9.78022 8.87086 9.78022C8.37753 9.78022 7.9942 9.62022 7.72086 9.30022C7.4542 8.97355 7.32086 8.38689 7.32086 7.54022V2.63022H8.11086V7.69022C8.11086 8.23022 8.17753 8.60689 8.31086 8.82022C8.4442 9.02689 8.62753 9.13022 8.86086 9.13022C9.10086 9.13022 9.28753 9.02689 9.42086 8.82022C9.56086 8.60689 9.63086 8.23022 9.63086 7.69022V2.63022ZM11.1096 3.27022V2.63022H13.8396V3.27022H12.8696V9.63022H12.0796V3.27022H11.1096ZM17.5879 4.72022V7.54022C17.5879 8.38689 17.4512 8.97355 17.1779 9.30022C16.9112 9.62022 16.5246 9.78022 16.0179 9.78022C15.5179 9.78022 15.1312 9.62022 14.8579 9.30022C14.5912 8.97355 14.4579 8.38689 14.4579 7.54022V4.72022C14.4579 3.87355 14.5912 3.29022 14.8579 2.97022C15.1312 2.64355 15.5179 2.48022 16.0179 2.48022C16.5246 2.48022 16.9112 2.64355 17.1779 2.97022C17.4512 3.29022 17.5879 3.87355 17.5879 4.72022ZM16.7979 7.69022V4.57022C16.7979 3.61022 16.5412 3.13022 16.0279 3.13022C15.7812 3.13022 15.5879 3.23355 15.4479 3.44022C15.3146 3.64689 15.2479 4.02355 15.2479 4.57022V7.69022C15.2479 8.23689 15.3146 8.61355 15.4479 8.82022C15.5879 9.02689 15.7812 9.13022 16.0279 9.13022C16.5412 9.13022 16.7979 8.65022 16.7979 7.69022Z" fill="white"/>
<path d="M3.79705 17.312H3.01705V10.312H4.23705L5.08705 15.162L5.94705 10.312H7.16705V17.312H6.38705V10.992L5.53705 15.812H4.64705L3.79705 10.992V17.312ZM10.6272 17.312L10.3172 15.492H8.9072L8.6072 17.312H7.8072L9.0872 10.312H10.1472L11.4272 17.312H10.6272ZM9.6172 11.322L9.0172 14.852H10.2072L9.6172 11.322ZM11.2698 10.952V10.312H13.9998V10.952H13.0298V17.312H12.2398V10.952H11.2698ZM17.5981 12.402V15.222C17.5981 16.0687 17.4614 16.6554 17.1881 16.982C16.9214 17.302 16.5347 17.462 16.0281 17.462C15.5281 17.462 15.1414 17.302 14.8681 16.982C14.6014 16.6554 14.4681 16.0687 14.4681 15.222V12.402C14.4681 11.5554 14.6014 10.972 14.8681 10.652C15.1414 10.3254 15.5281 10.162 16.0281 10.162C16.5347 10.162 16.9214 10.3254 17.1881 10.652C17.4614 10.972 17.5981 11.5554 17.5981 12.402ZM16.8081 15.372V12.252C16.8081 11.292 16.5514 10.812 16.0381 10.812C15.7914 10.812 15.5981 10.9154 15.4581 11.122C15.3247 11.3287 15.2581 11.7054 15.2581 12.252V15.372C15.2581 15.9187 15.3247 16.2954 15.4581 16.502C15.5981 16.7087 15.7914 16.812 16.0381 16.812C16.5514 16.812 16.8081 16.332 16.8081 15.372Z" fill="white"/>
</svg>
